<svg xmlns="http://www.w3.org/2000/svg" width="900" height="520" viewBox="0 0 900 520" fill="none">
  <rect width="900" height="520" rx="0" fill="#f7f9f6"/>
  <g opacity="0.68">
    <path d="M52 416C162 318 264 365 363 285C477 192 534 94 690 106C767 112 819 147 865 189" stroke="#1e8675" stroke-width="2.5"/>
    <path d="M34 358C149 300 260 318 353 249C450 178 541 61 683 74C770 82 823 117 879 167" stroke="#4c63b6" stroke-width="1.5" opacity="0.55"/>
    <path d="M68 459C166 398 286 410 408 322C533 232 599 186 733 205C797 214 840 244 880 286" stroke="#d1784a" stroke-width="1.5" opacity="0.55"/>
  </g>
  <g opacity="0.5">
    <path d="M114 87H773" stroke="#cad3d0"/>
    <path d="M114 151H773" stroke="#cad3d0"/>
    <path d="M114 215H773" stroke="#cad3d0"/>
    <path d="M114 279H773" stroke="#cad3d0"/>
    <path d="M114 343H773" stroke="#cad3d0"/>
    <path d="M162 48V441" stroke="#d7ddda"/>
    <path d="M254 48V441" stroke="#d7ddda"/>
    <path d="M346 48V441" stroke="#d7ddda"/>
    <path d="M438 48V441" stroke="#d7ddda"/>
    <path d="M530 48V441" stroke="#d7ddda"/>
    <path d="M622 48V441" stroke="#d7ddda"/>
    <path d="M714 48V441" stroke="#d7ddda"/>
  </g>
  <g>
    <circle cx="162" cy="318" r="8" fill="#1e8675"/>
    <circle cx="363" cy="285" r="8" fill="#1e8675"/>
    <circle cx="534" cy="94" r="8" fill="#1e8675"/>
    <circle cx="690" cy="106" r="8" fill="#1e8675"/>
    <circle cx="254" cy="318" r="6" fill="#4c63b6"/>
    <circle cx="450" cy="178" r="6" fill="#4c63b6"/>
    <circle cx="683" cy="74" r="6" fill="#4c63b6"/>
    <circle cx="408" cy="322" r="6" fill="#d1784a"/>
    <circle cx="599" cy="186" r="6" fill="#d1784a"/>
    <circle cx="733" cy="205" r="6" fill="#d1784a"/>
  </g>
  <g opacity="0.9">
    <rect x="72" y="62" width="158" height="46" rx="6" fill="#101417"/>
    <rect x="88" y="78" width="54" height="6" rx="3" fill="#8fd5c9"/>
    <rect x="88" y="92" width="98" height="5" rx="2.5" fill="#cbd5cf"/>
    <rect x="682" y="360" width="148" height="56" rx="6" fill="#101417"/>
    <rect x="700" y="378" width="66" height="6" rx="3" fill="#f1b37d"/>
    <rect x="700" y="394" width="96" height="5" rx="2.5" fill="#cbd5cf"/>
    <rect x="500" y="256" width="122" height="40" rx="6" fill="#ffffff" stroke="#a9b9b4"/>
    <rect x="514" y="270" width="78" height="6" rx="3" fill="#4c63b6"/>
    <rect x="514" y="283" width="52" height="5" rx="2.5" fill="#a9b9b4"/>
  </g>
</svg>
